<svg xmlns="http://www.w3.org/2000/svg" viewBox="0 0 320 240" width="320" height="240">
  <rect width="320" height="240" fill="#1a1a2e"/>
  <rect x="80" y="60" width="16" height="16" fill="#6366f1"/>
  <rect x="96" y="60" width="16" height="16" fill="#818cf8"/>
  <rect x="112" y="60" width="16" height="16" fill="#a5b4fc"/>
  <rect x="80" y="76" width="16" height="16" fill="#818cf8"/>
  <rect x="96" y="76" width="16" height="16" fill="#c7d2fe"/>
  <rect x="112" y="76" width="16" height="16" fill="#818cf8"/>
  <rect x="80" y="92" width="16" height="16" fill="#6366f1"/>
  <rect x="96" y="92" width="16" height="16" fill="#818cf8"/>
  <rect x="112" y="92" width="16" height="16" fill="#6366f1"/>
  <rect x="176" y="60" width="16" height="16" fill="#10b981"/>
  <rect x="192" y="60" width="16" height="16" fill="#34d399"/>
  <rect x="208" y="60" width="16" height="16" fill="#6ee7b7"/>
  <rect x="176" y="76" width="16" height="16" fill="#059669"/>
  <rect x="192" y="76" width="16" height="16" fill="#10b981"/>
  <rect x="208" y="76" width="16" height="16" fill="#34d399"/>
  <text x="160" y="160" text-anchor="middle" fill="#64748b" font-family="monospace" font-size="11">005 - pixel art</text>
  <text x="160" y="178" text-anchor="middle" fill="#334155" font-family="monospace" font-size="9">placeholder - replace with screenshot</text>
</svg>
