<svg xmlns="http://www.w3.org/2000/svg" viewBox="0 0 320 240" width="320" height="240">
  <rect width="320" height="240" fill="#030c03"/>
  <rect x="30" y="30" width="260" height="180" fill="#041404" rx="4"/>
  <rect x="40" y="40" width="240" height="160" fill="#052005" rx="2" opacity="0.8"/>
  <rect x="50" y="50" width="80" height="10" fill="#15803d" rx="1"/>
  <rect x="50" y="68" width="120" height="8" fill="#166534" rx="1"/>
  <rect x="50" y="84" width="100" height="8" fill="#166534" rx="1"/>
  <rect x="50" y="100" width="140" height="8" fill="#166534" rx="1"/>
  <rect x="50" y="116" width="60" height="8" fill="#166534" rx="1"/>
  <rect x="50" y="140" width="220" height="2" fill="#14532d" opacity="0.6"/>
  <rect x="50" y="155" width="220" height="6" fill="#166534" rx="1"/>
  <circle cx="240" cy="80" r="30" fill="none" stroke="#15803d" stroke-width="2"/>
  <circle cx="240" cy="80" r="20" fill="none" stroke="#166534" stroke-width="1"/>
  <line x1="240" y1="50" x2="240" y2="110" stroke="#15803d" stroke-width="1"/>
  <line x1="210" y1="80" x2="270" y2="80" stroke="#15803d" stroke-width="1"/>
  <rect x="30" y="30" width="260" height="180" fill="none" stroke="#14532d" stroke-width="1" rx="4" opacity="0.4"/>
  <text x="160" y="222" text-anchor="middle" fill="#166534" font-family="monospace" font-size="11">023 - crt pip-boy</text>
  <text x="160" y="234" text-anchor="middle" fill="#14532d" font-family="monospace" font-size="9">placeholder - replace with screenshot</text>
</svg>
